<mxfile host="app.diagrams.net" modified="2024-03-23T11:22:07.520Z" agent="Mozilla/5.0 (Windows NT 10.0; Win64; x64) AppleWebKit/537.36 (KHTML, like Gecko) Chrome/123.0.0.0 Safari/537.36" etag="75K5yEubSOGlegezKejf" version="24.0.7" type="google">
  <diagram name="Página-1" id="GRq1dv8NEdI-9Z8rz7KP">
    <mxGraphModel grid="1" page="1" gridSize="10" guides="1" tooltips="1" connect="1" arrows="1" fold="1" pageScale="1" pageWidth="827" pageHeight="1169" math="0" shadow="0">
      <root>
        <mxCell id="0" />
        <mxCell id="1" parent="0" />
        <mxCell id="uG1Xc32Nt-yqZVR93UJ0-14" style="edgeStyle=orthogonalEdgeStyle;rounded=0;orthogonalLoop=1;jettySize=auto;html=1;entryX=1;entryY=0.5;entryDx=0;entryDy=0;" edge="1" parent="1" source="uG1Xc32Nt-yqZVR93UJ0-1" target="uG1Xc32Nt-yqZVR93UJ0-3">
          <mxGeometry relative="1" as="geometry">
            <Array as="points">
              <mxPoint x="1395" y="290" />
            </Array>
          </mxGeometry>
        </mxCell>
        <mxCell id="uG1Xc32Nt-yqZVR93UJ0-15" style="edgeStyle=orthogonalEdgeStyle;rounded=0;orthogonalLoop=1;jettySize=auto;html=1;" edge="1" parent="1" source="uG1Xc32Nt-yqZVR93UJ0-1" target="uG1Xc32Nt-yqZVR93UJ0-4">
          <mxGeometry relative="1" as="geometry">
            <Array as="points">
              <mxPoint x="1300" y="560" />
              <mxPoint x="1300" y="380" />
            </Array>
          </mxGeometry>
        </mxCell>
        <mxCell id="uG1Xc32Nt-yqZVR93UJ0-16" style="edgeStyle=orthogonalEdgeStyle;rounded=0;orthogonalLoop=1;jettySize=auto;html=1;entryX=1;entryY=0.5;entryDx=0;entryDy=0;" edge="1" parent="1" source="uG1Xc32Nt-yqZVR93UJ0-1" target="uG1Xc32Nt-yqZVR93UJ0-5">
          <mxGeometry relative="1" as="geometry">
            <Array as="points">
              <mxPoint x="1300" y="560" />
              <mxPoint x="1300" y="480" />
            </Array>
          </mxGeometry>
        </mxCell>
        <mxCell id="uG1Xc32Nt-yqZVR93UJ0-18" style="edgeStyle=orthogonalEdgeStyle;rounded=0;orthogonalLoop=1;jettySize=auto;html=1;entryX=1;entryY=0.5;entryDx=0;entryDy=0;" edge="1" parent="1" source="uG1Xc32Nt-yqZVR93UJ0-1" target="uG1Xc32Nt-yqZVR93UJ0-7">
          <mxGeometry relative="1" as="geometry">
            <Array as="points">
              <mxPoint x="1300" y="560" />
              <mxPoint x="1300" y="590" />
            </Array>
          </mxGeometry>
        </mxCell>
        <mxCell id="uG1Xc32Nt-yqZVR93UJ0-24" style="edgeStyle=orthogonalEdgeStyle;rounded=0;orthogonalLoop=1;jettySize=auto;html=1;" edge="1" parent="1" source="uG1Xc32Nt-yqZVR93UJ0-1" target="uG1Xc32Nt-yqZVR93UJ0-21">
          <mxGeometry relative="1" as="geometry">
            <Array as="points">
              <mxPoint x="842" y="160" />
              <mxPoint x="270" y="160" />
            </Array>
          </mxGeometry>
        </mxCell>
        <mxCell id="uG1Xc32Nt-yqZVR93UJ0-28" style="edgeStyle=orthogonalEdgeStyle;rounded=0;orthogonalLoop=1;jettySize=auto;html=1;entryX=1;entryY=0.5;entryDx=0;entryDy=0;" edge="1" parent="1" source="uG1Xc32Nt-yqZVR93UJ0-1" target="uG1Xc32Nt-yqZVR93UJ0-27">
          <mxGeometry relative="1" as="geometry">
            <Array as="points">
              <mxPoint x="1300" y="560" />
              <mxPoint x="1300" y="690" />
            </Array>
          </mxGeometry>
        </mxCell>
        <mxCell id="uG1Xc32Nt-yqZVR93UJ0-36" style="edgeStyle=orthogonalEdgeStyle;rounded=0;orthogonalLoop=1;jettySize=auto;html=1;entryX=0.5;entryY=0;entryDx=0;entryDy=0;" edge="1" parent="1" source="uG1Xc32Nt-yqZVR93UJ0-1" target="uG1Xc32Nt-yqZVR93UJ0-35">
          <mxGeometry relative="1" as="geometry">
            <Array as="points">
              <mxPoint x="1395" y="220" />
              <mxPoint x="750" y="220" />
            </Array>
          </mxGeometry>
        </mxCell>
        <mxCell id="uG1Xc32Nt-yqZVR93UJ0-1" value="Usuá&lt;span style=&quot;background-color: initial;&quot;&gt;rio&lt;/span&gt;" style="shape=umlActor;verticalLabelPosition=bottom;verticalAlign=top;html=1;outlineConnect=0;" vertex="1" parent="1">
          <mxGeometry x="1380" y="530" width="30" height="60" as="geometry" />
        </mxCell>
        <mxCell id="uG1Xc32Nt-yqZVR93UJ0-12" style="edgeStyle=orthogonalEdgeStyle;rounded=0;orthogonalLoop=1;jettySize=auto;html=1;" edge="1" parent="1" source="uG1Xc32Nt-yqZVR93UJ0-2" target="uG1Xc32Nt-yqZVR93UJ0-8">
          <mxGeometry relative="1" as="geometry">
            <mxPoint x="230" y="370" as="sourcePoint" />
            <Array as="points">
              <mxPoint x="260" y="400" />
              <mxPoint x="260" y="500" />
            </Array>
          </mxGeometry>
        </mxCell>
        <mxCell id="uG1Xc32Nt-yqZVR93UJ0-20" style="edgeStyle=orthogonalEdgeStyle;rounded=0;orthogonalLoop=1;jettySize=auto;html=1;entryX=0;entryY=0.5;entryDx=0;entryDy=0;" edge="1" parent="1" source="uG1Xc32Nt-yqZVR93UJ0-2" target="uG1Xc32Nt-yqZVR93UJ0-9">
          <mxGeometry relative="1" as="geometry">
            <Array as="points">
              <mxPoint x="260" y="400" />
              <mxPoint x="260" y="600" />
            </Array>
          </mxGeometry>
        </mxCell>
        <mxCell id="uG1Xc32Nt-yqZVR93UJ0-25" style="edgeStyle=orthogonalEdgeStyle;rounded=0;orthogonalLoop=1;jettySize=auto;html=1;entryX=0;entryY=0;entryDx=0;entryDy=0;" edge="1" parent="1" source="uG1Xc32Nt-yqZVR93UJ0-2" target="uG1Xc32Nt-yqZVR93UJ0-21">
          <mxGeometry relative="1" as="geometry">
            <Array as="points">
              <mxPoint x="260" y="400" />
              <mxPoint x="260" y="320" />
              <mxPoint x="578" y="320" />
            </Array>
          </mxGeometry>
        </mxCell>
        <mxCell id="uG1Xc32Nt-yqZVR93UJ0-37" style="edgeStyle=orthogonalEdgeStyle;rounded=0;orthogonalLoop=1;jettySize=auto;html=1;entryX=0.5;entryY=1;entryDx=0;entryDy=0;" edge="1" parent="1" source="uG1Xc32Nt-yqZVR93UJ0-2" target="uG1Xc32Nt-yqZVR93UJ0-35">
          <mxGeometry relative="1" as="geometry">
            <Array as="points">
              <mxPoint x="445" y="400" />
              <mxPoint x="445" y="450" />
              <mxPoint x="750" y="450" />
            </Array>
          </mxGeometry>
        </mxCell>
        <mxCell id="THs8nxTOEAJ-GlzeugM1-2" style="edgeStyle=orthogonalEdgeStyle;rounded=0;orthogonalLoop=1;jettySize=auto;html=1;entryX=0;entryY=0.5;entryDx=0;entryDy=0;" edge="1" parent="1" source="uG1Xc32Nt-yqZVR93UJ0-2" target="uG1Xc32Nt-yqZVR93UJ0-22">
          <mxGeometry relative="1" as="geometry">
            <Array as="points">
              <mxPoint x="260" y="400" />
              <mxPoint x="260" y="690" />
            </Array>
          </mxGeometry>
        </mxCell>
        <mxCell id="uG1Xc32Nt-yqZVR93UJ0-2" value="Coletor" style="shape=umlActor;verticalLabelPosition=bottom;verticalAlign=top;html=1;outlineConnect=0;" vertex="1" parent="1">
          <mxGeometry x="170" y="370" width="30" height="60" as="geometry" />
        </mxCell>
        <mxCell id="uG1Xc32Nt-yqZVR93UJ0-3" value="UC - 00 Selecionar o Tipo de Resíduo" style="ellipse;whiteSpace=wrap;html=1;" vertex="1" parent="1">
          <mxGeometry x="900" y="250" width="120" height="80" as="geometry" />
        </mxCell>
        <mxCell id="uG1Xc32Nt-yqZVR93UJ0-4" value="UC - 01 Agendar Coleta" style="ellipse;whiteSpace=wrap;html=1;" vertex="1" parent="1">
          <mxGeometry x="900" y="340" width="120" height="80" as="geometry" />
        </mxCell>
        <mxCell id="uG1Xc32Nt-yqZVR93UJ0-33" style="edgeStyle=orthogonalEdgeStyle;rounded=0;orthogonalLoop=1;jettySize=auto;html=1;entryX=1;entryY=0.5;entryDx=0;entryDy=0;dashed=1;" edge="1" parent="1" source="uG1Xc32Nt-yqZVR93UJ0-5" target="uG1Xc32Nt-yqZVR93UJ0-29">
          <mxGeometry relative="1" as="geometry" />
        </mxCell>
        <mxCell id="uG1Xc32Nt-yqZVR93UJ0-34" value="Extend" style="edgeLabel;html=1;align=center;verticalAlign=middle;resizable=0;points=[];" connectable="0" vertex="1" parent="uG1Xc32Nt-yqZVR93UJ0-33">
          <mxGeometry x="-0.0387" y="-3" relative="1" as="geometry">
            <mxPoint as="offset" />
          </mxGeometry>
        </mxCell>
        <mxCell id="uG1Xc32Nt-yqZVR93UJ0-5" value="UC - 02 Realizar Pagamento" style="ellipse;whiteSpace=wrap;html=1;" vertex="1" parent="1">
          <mxGeometry x="900" y="440" width="120" height="80" as="geometry" />
        </mxCell>
        <mxCell id="uG1Xc32Nt-yqZVR93UJ0-7" value="UC - 03 Confirmar Coleta" style="ellipse;whiteSpace=wrap;html=1;" vertex="1" parent="1">
          <mxGeometry x="900" y="550" width="120" height="80" as="geometry" />
        </mxCell>
        <mxCell id="uG1Xc32Nt-yqZVR93UJ0-8" value="UC - 06&lt;span style=&quot;background-color: initial;&quot;&gt;&amp;nbsp;Escolher Coletas&lt;/span&gt;" style="ellipse;whiteSpace=wrap;html=1;" vertex="1" parent="1">
          <mxGeometry x="450" y="470" width="120" height="80" as="geometry" />
        </mxCell>
        <mxCell id="uG1Xc32Nt-yqZVR93UJ0-9" value="UC - 07 Confirmar a Coleta" style="ellipse;whiteSpace=wrap;html=1;" vertex="1" parent="1">
          <mxGeometry x="450" y="560" width="120" height="80" as="geometry" />
        </mxCell>
        <mxCell id="uG1Xc32Nt-yqZVR93UJ0-21" value="UC - 05 Login" style="ellipse;whiteSpace=wrap;html=1;" vertex="1" parent="1">
          <mxGeometry x="560" y="330" width="120" height="80" as="geometry" />
        </mxCell>
        <mxCell id="uG1Xc32Nt-yqZVR93UJ0-22" value="UC - 08 Histórico de coletas realizadas" style="ellipse;whiteSpace=wrap;html=1;" vertex="1" parent="1">
          <mxGeometry x="450" y="650" width="120" height="80" as="geometry" />
        </mxCell>
        <mxCell id="uG1Xc32Nt-yqZVR93UJ0-27" value="UC - 04 Histórico de pedidos realizados" style="ellipse;whiteSpace=wrap;html=1;" vertex="1" parent="1">
          <mxGeometry x="900" y="650" width="120" height="80" as="geometry" />
        </mxCell>
        <mxCell id="uG1Xc32Nt-yqZVR93UJ0-29" value="UC - 09 Cadastrar Cartão" style="ellipse;whiteSpace=wrap;html=1;" vertex="1" parent="1">
          <mxGeometry x="740" y="550" width="120" height="80" as="geometry" />
        </mxCell>
        <mxCell id="uG1Xc32Nt-yqZVR93UJ0-35" value="UC - 10 Realizar cadastro" style="ellipse;whiteSpace=wrap;html=1;" vertex="1" parent="1">
          <mxGeometry x="690" y="350" width="120" height="80" as="geometry" />
        </mxCell>
      </root>
    </mxGraphModel>
  </diagram>
</mxfile>
